<svg width="10" height="10" viewBox="0 0 10 10" fill="none" xmlns="http://www.w3.org/2000/svg">
<g clip-path="url(#clip0)">
<path d="M9.16667 2.91671H6.25V2.08337H9.16667V2.91671ZM9.88583 7.08337C9.70167 7.62379 9.04042 8.33337 7.76042 8.33337C6.47958 8.33337 5.44208 7.61296 5.44208 5.96879C5.44208 4.33962 6.41083 3.50212 7.71958 3.50212C9.00375 3.50212 9.78792 4.24462 9.95917 5.34629C9.99167 5.55712 10.0046 5.84129 9.99875 6.23796H6.65417C6.70833 7.57587 8.10542 7.61796 8.56583 7.08337H9.88583ZM6.68333 5.41671H8.75208C8.70833 4.77212 8.27875 4.49212 7.72 4.49212C7.10917 4.49212 6.77125 4.81212 6.68333 5.41671ZM2.69417 8.32837H0V2.09212H2.89708C5.17875 2.12587 5.22208 4.36046 4.03042 4.96962C5.4725 5.49462 5.52083 8.32837 2.69417 8.32837ZM1.25 4.58337H2.74333C3.78833 4.58337 3.95417 3.33337 2.61333 3.33337H1.25V4.58337ZM2.66292 5.83337H1.25V7.09004H2.64208C3.915 7.09004 3.83708 5.83337 2.66292 5.83337Z" fill="#344BFB"/>
</g>
<defs>
<clipPath id="clip0">
<rect width="10" height="10" fill="white"/>
</clipPath>
</defs>
</svg>
