<svg width="24" height="24" viewBox="0 0 24 24" fill="#3D3D3D" xmlns="http://www.w3.org/2000/svg">
<g clip-path="url(#clip0)">
<path d="M22 7.00002H15V5H22V7.00002ZM23.726 17C23.284 18.297 21.697 20 18.625 20C15.551 20 13.061 18.271 13.061 14.325C13.061 10.415 15.386 8.405 18.527 8.405C21.609 8.405 23.491 10.187 23.902 12.831C23.98 13.337 24.011 14.019 23.997 14.971H15.97C16.1 18.182 19.453 18.283 20.558 17H23.726ZM16.04 13H21.005C20.9 11.453 19.869 10.781 18.528 10.781C17.062 10.781 16.251 11.549 16.04 13ZM6.46601 19.988H0V5.021H6.95299C12.429 5.102 12.533 10.465 9.67301 11.927C13.134 13.187 13.25 19.988 6.46601 19.988ZM3 11H6.58399C9.09199 11 9.49001 8 6.27199 8H3V11ZM6.39101 14H3V17.016H6.34099C9.396 17.016 9.20899 14 6.39101 14Z"/>
</g>
<defs>
<clipPath id="clip0">
<rect width="24" height="24"/>
</clipPath>
</defs>
</svg>
