<svg width="10" height="10" viewBox="0 0 10 10" fill="none" xmlns="http://www.w3.org/2000/svg">
<path d="M5.01953 10C7.77206 10 10 7.77245 10 5.01953C10 2.27669 7.78137 0 5.01953 0C2.26921 0 0 2.26768 0 5.01953C0 7.78381 2.27943 10 5.01953 10ZM2.44888 8.59802C2.81197 7.21436 4.10538 6.08856 5.75974 5.59006C6.14769 6.73462 6.38718 7.94342 6.45988 9.17137C6.00845 9.32838 5.52383 9.41406 5.01953 9.41406C4.06204 9.41406 3.17444 9.11156 2.44888 8.59802ZM7.03102 8.92593C6.94366 7.73109 6.71036 6.56548 6.33484 5.44533C7.35443 5.23788 8.41743 5.27695 9.38332 5.53818C9.20883 7.0153 8.2991 8.27034 7.03102 8.92593ZM5.80025 4.08905C6.79436 3.71857 7.84836 3.10417 8.42155 2.21634C9.02618 2.96173 9.39507 3.90869 9.41307 4.94049C8.37364 4.67979 7.23373 4.65202 6.13426 4.8864C6.02783 4.60846 5.92026 4.35249 5.80025 4.08905ZM8.00629 1.77055C7.53067 2.63084 6.46545 3.22281 5.54497 3.55896C5.02975 2.54547 4.39949 1.62094 3.66264 0.798569C4.0905 0.660706 4.54643 0.585938 5.01953 0.585938C6.1718 0.585938 7.22168 1.03592 8.00629 1.77055ZM3.08258 1.03203C3.8253 1.8322 4.46152 2.74864 4.97604 3.7439C3.69102 4.11324 2.18399 4.23943 0.690842 4.05983C0.986252 2.72636 1.88377 1.61674 3.08258 1.03203ZM0.602417 4.63943C2.20245 4.83452 3.83499 4.69658 5.23674 4.27765C5.35118 4.52599 5.45845 4.77852 5.55801 5.03494C3.94798 5.52299 2.48955 6.62254 1.95816 8.19534C1.11313 7.39471 0.585938 6.26701 0.585938 5.01953C0.585938 4.89151 0.591736 4.76479 0.602417 4.63943Z" fill="#344BFB"/>
</svg>
