<svg width="24" height="24" viewBox="0 0 24 24" fill="none" xmlns="http://www.w3.org/2000/svg">
<path d="M12 1C5.37 1 0 6.17217 0 12.5512C0 17.6558 3.438 21.9845 8.205 23.5107C8.805 23.6194 9.025 23.2619 9.025 22.9553C9.025 22.681 9.015 21.9541 9.01 20.9912C5.672 21.6877 4.968 19.4415 4.968 19.4415C4.422 18.1083 3.633 17.7518 3.633 17.7518C2.546 17.0357 3.717 17.0504 3.717 17.0504C4.922 17.1307 5.555 18.2406 5.555 18.2406C6.625 20.0067 8.364 19.4964 9.05 19.2015C9.158 18.4541 9.467 17.9457 9.81 17.6567C7.145 17.3678 4.344 16.3745 4.344 11.9487C4.344 10.688 4.809 9.6575 5.579 8.84935C5.444 8.55744 5.039 7.38293 5.684 5.79209C5.684 5.79209 6.689 5.48255 8.984 6.9764C9.944 6.71975 10.964 6.59241 11.984 6.58653C13.004 6.59241 14.024 6.71975 14.984 6.9764C17.264 5.48255 18.269 5.79209 18.269 5.79209C18.914 7.38293 18.509 8.55744 18.389 8.84935C19.154 9.6575 19.619 10.688 19.619 11.9487C19.619 16.3862 16.814 17.3629 14.144 17.6469C14.564 17.9937 14.954 18.7019 14.954 19.7844C14.954 21.3301 14.939 22.5723 14.939 22.9474C14.939 23.2501 15.149 23.6116 15.764 23.496C20.565 21.9796 24 17.6479 24 12.5512C24 6.17217 18.627 1 12 1V1Z" fill="#3D3D3D"/>
</svg>
