<svg width="10" height="10" viewBox="0 0 10 10" fill="none" xmlns="http://www.w3.org/2000/svg">
<g clip-path="url(#clip0)">
<path d="M5.09861 10C5.0655 10 5.03239 10 4.99905 9.99985C4.21517 10.0018 3.49089 9.98184 2.78651 9.93896C2.14074 9.89967 1.55127 9.67651 1.08174 9.29367C0.628686 8.92425 0.319302 8.42475 0.162207 7.80921C0.0254832 7.27332 0.018235 6.74727 0.0112919 6.23847C0.00625633 5.8734 0.00106816 5.44081 0 5.0009C0.00106816 4.55916 0.00625633 4.12657 0.0112919 3.7615C0.018235 3.25277 0.0254832 2.72673 0.162207 2.19076C0.319302 1.57522 0.628686 1.07572 1.08174 0.706303C1.55127 0.323459 2.14074 0.100299 2.78659 0.0610073C3.49096 0.0182063 4.2154 -0.00178282 5.00095 0.000124534C5.78506 -0.00155394 6.50911 0.0182063 7.21349 0.0610073C7.85926 0.100299 8.44873 0.323459 8.91826 0.706303C9.37139 1.07572 9.6807 1.57522 9.83779 2.19076C9.97452 2.72665 9.98177 3.25277 9.98871 3.7615C9.99374 4.12657 9.99901 4.55916 10 4.99907V5.0009C9.99901 5.44081 9.99374 5.8734 9.98871 6.23847C9.98177 6.7472 9.97459 7.27325 9.83779 7.80921C9.6807 8.42475 9.37139 8.92425 8.91826 9.29367C8.44873 9.67651 7.85926 9.89967 7.21349 9.93896C6.53895 9.98001 5.84602 10 5.09861 10ZM4.99905 9.21859C5.77018 9.22043 6.47821 9.20097 7.16603 9.15916C7.65433 9.12948 8.0777 8.97102 8.42455 8.6882C8.74515 8.42674 8.96595 8.06602 9.08078 7.61604C9.19461 7.16994 9.20117 6.69097 9.2075 6.22779C9.21246 5.86516 9.21765 5.43563 9.21872 4.99999C9.21765 4.56427 9.21246 4.13481 9.2075 3.77218C9.20117 3.309 9.19461 2.83003 9.08078 2.38386C8.96595 1.93388 8.74515 1.57316 8.42455 1.3117C8.0777 1.02895 7.65433 0.870488 7.16603 0.84081C6.47821 0.798924 5.77018 0.779622 5.00088 0.7813C4.2299 0.779469 3.52179 0.798924 2.83397 0.84081C2.34567 0.870488 1.9223 1.02895 1.57545 1.3117C1.25485 1.57316 1.03405 1.93388 0.919225 2.38386C0.80539 2.83003 0.798828 3.30893 0.792495 3.77218C0.787536 4.13512 0.782348 4.56488 0.78128 5.0009C0.782348 5.43502 0.787536 5.86486 0.792495 6.22779C0.798828 6.69097 0.80539 7.16994 0.919225 7.61604C1.03405 8.06602 1.25485 8.42674 1.57545 8.6882C1.9223 8.97094 2.34567 9.12941 2.83397 9.15909C3.52179 9.20097 4.23005 9.2205 4.99905 9.21859ZM4.98043 7.4414C3.63425 7.4414 2.53893 6.3462 2.53893 4.99999C2.53893 3.65378 3.63425 2.55857 4.98043 2.55857C6.32669 2.55857 7.42193 3.65378 7.42193 4.99999C7.42193 6.3462 6.32669 7.4414 4.98043 7.4414ZM4.98043 3.33982C4.06502 3.33982 3.32021 4.08461 3.32021 4.99999C3.32021 5.91536 4.06502 6.66015 4.98043 6.66015C5.89592 6.66015 6.64065 5.91536 6.64065 4.99999C6.64065 4.08461 5.89592 3.33982 4.98043 3.33982ZM7.69538 1.77732C7.3718 1.77732 7.10942 2.03962 7.10942 2.36326C7.10942 2.6869 7.3718 2.9492 7.69538 2.9492C8.01903 2.9492 8.28134 2.6869 8.28134 2.36326C8.28134 2.03962 8.01903 1.77732 7.69538 1.77732Z" fill="#344BFB"/>
</g>
<defs>
<clipPath id="clip0">
<rect width="10" height="10" fill="white"/>
</clipPath>
</defs>
</svg>
