<svg width="24" height="24" viewBox="0 0 24 24" fill="none" xmlns="http://www.w3.org/2000/svg">
<g clip-path="url(#clip0)">
<path d="M12.2367 24C12.1572 24 12.0777 24 11.9977 23.9996C10.1164 24.0043 8.37814 23.9564 6.68762 23.8535C5.13778 23.7592 3.72305 23.2236 2.59618 22.3048C1.50885 21.4182 0.766325 20.2194 0.389297 18.7421C0.0611597 17.456 0.043764 16.1934 0.0271006 14.9723C0.0150152 14.0962 0.00256358 13.0579 0 12.0022C0.00256358 10.942 0.0150152 9.90377 0.0271006 9.0276C0.043764 7.80665 0.0611597 6.54415 0.389297 5.25782C0.766325 3.78053 1.50885 2.58173 2.59618 1.69513C3.72305 0.776302 5.13778 0.240718 6.68782 0.146418C8.3783 0.0436951 10.117 -0.00427877 12.0023 0.000298881C13.8841 -0.00372946 15.6219 0.0436951 17.3124 0.146418C18.8622 0.240718 20.277 0.776302 21.4038 1.69513C22.4913 2.58173 23.2337 3.78053 23.6107 5.25782C23.9388 6.54396 23.9562 7.80665 23.9729 9.0276C23.985 9.90377 23.9976 10.942 24 11.9978V12.0022C23.9976 13.0579 23.985 14.0962 23.9729 14.9723C23.9562 16.1933 23.939 17.4558 23.6107 18.7421C23.2337 20.2194 22.4913 21.4182 21.4038 22.3048C20.277 23.2236 18.8622 23.7592 17.3124 23.8535C15.6935 23.952 14.0304 24 12.2367 24ZM11.9977 22.1246C13.8484 22.129 15.5477 22.0823 17.1985 21.982C18.3704 21.9108 19.3865 21.5304 20.2189 20.8517C20.9884 20.2242 21.5183 19.3584 21.7939 18.2785C22.0671 17.2079 22.0828 16.0583 22.098 14.9467C22.1099 14.0764 22.1224 13.0455 22.1249 12C22.1224 10.9542 22.1099 9.92354 22.098 9.05323C22.0828 7.9416 22.0671 6.79207 21.7939 5.72126C21.5183 4.64131 20.9884 3.77558 20.2189 3.14808C19.3865 2.46948 18.3704 2.08917 17.1985 2.01794C15.5477 1.91742 13.8484 1.87109 12.0021 1.87512C10.1518 1.87073 8.4523 1.91742 6.80153 2.01794C5.62961 2.08917 4.61352 2.46948 3.78108 3.14808C3.01164 3.77558 2.48172 4.64131 2.20614 5.72126C1.93294 6.79207 1.91719 7.94143 1.90199 9.05323C1.89009 9.92429 1.87764 10.9557 1.87507 12.0022C1.87764 13.044 1.89009 14.0757 1.90199 14.9467C1.91719 16.0583 1.93294 17.2079 2.20614 18.2785C2.48172 19.3584 3.01164 20.2242 3.78108 20.8517C4.61352 21.5303 5.62961 21.9106 6.80153 21.9818C8.4523 22.0823 10.1521 22.1292 11.9977 22.1246ZM11.953 17.8594C8.7222 17.8594 6.09343 15.2309 6.09343 12C6.09343 8.76907 8.7222 6.14057 11.953 6.14057C15.1841 6.14057 17.8126 8.76907 17.8126 12C17.8126 15.2309 15.1841 17.8594 11.953 17.8594ZM11.953 8.01557C9.75605 8.01557 7.9685 9.80306 7.9685 12C7.9685 14.1969 9.75605 15.9844 11.953 15.9844C14.1502 15.9844 15.9376 14.1969 15.9376 12C15.9376 9.80306 14.1502 8.01557 11.953 8.01557ZM18.4689 4.26557C17.6923 4.26557 17.0626 4.89509 17.0626 5.67182C17.0626 6.44856 17.6923 7.07808 18.4689 7.07808C19.2457 7.07808 19.8752 6.44856 19.8752 5.67182C19.8752 4.89509 19.2457 4.26557 18.4689 4.26557Z" fill="#3D3D3D"/>
</g>
<defs>
<clipPath id="clip0">
<rect width="24" height="24" fill="white"/>
</clipPath>
</defs>
</svg>
