<svg width="24" height="24" viewBox="0 0 24 24" fill="none" xmlns="http://www.w3.org/2000/svg">
<path d="M19 0H4.99999C2.239 0 0 2.239 0 4.99999V19C0 21.761 2.239 24 4.99999 24H19C21.762 24 24 21.761 24 19V4.99999C24 2.239 21.762 0 19 0ZM7.99999 19H4.99999V7.99999H7.99999V19ZM6.49999 6.732C5.53399 6.732 4.75001 5.94199 4.75001 4.968C4.75001 3.99401 5.53399 3.204 6.49999 3.204C7.46599 3.204 8.25 3.99401 8.25 4.968C8.25 5.94199 7.467 6.732 6.49999 6.732ZM20 19H17V13.396C17 10.028 13 10.283 13 13.396V19H10V7.99999H13V9.765C14.396 7.179 20 6.98801 20 12.241V19Z" fill="#3D3D3D"/>
</svg>
