<svg width="10" height="10" viewBox="0 0 10 10" fill="none" xmlns="http://www.w3.org/2000/svg">
<path d="M7.91667 0H2.08333C0.932917 0 0 0.932917 0 2.08333V7.91667C0 9.06708 0.932917 10 2.08333 10H7.91667C9.0675 10 10 9.06708 10 7.91667V2.08333C10 0.932917 9.0675 0 7.91667 0ZM3.33333 7.91667H2.08333V3.33333H3.33333V7.91667ZM2.70833 2.805C2.30583 2.805 1.97917 2.47583 1.97917 2.07C1.97917 1.66417 2.30583 1.335 2.70833 1.335C3.11083 1.335 3.4375 1.66417 3.4375 2.07C3.4375 2.47583 3.11125 2.805 2.70833 2.805ZM8.33333 7.91667H7.08333V5.58167C7.08333 4.17833 5.41667 4.28458 5.41667 5.58167V7.91667H4.16667V3.33333H5.41667V4.06875C5.99833 2.99125 8.33333 2.91167 8.33333 5.10042V7.91667Z" fill="#344BFB"/>
</svg>
