<svg width="257" height="147" viewBox="0 0 257 147" fill="none" xmlns="http://www.w3.org/2000/svg">
<path fill-rule="evenodd" clip-rule="evenodd" d="M146.857 0H0V147H146.857V0ZM73.4286 110.25C93.7053 110.25 110.143 93.7965 110.143 73.5C110.143 53.2035 93.7053 36.75 73.4286 36.75C53.1518 36.75 36.7143 53.2035 36.7143 73.5C36.7143 93.7965 53.1518 110.25 73.4286 110.25Z" fill="black"/>
<path d="M257 73.5C257 93.7965 240.562 110.25 220.286 110.25C200.009 110.25 183.571 93.7965 183.571 73.5C183.571 53.2035 200.009 36.75 220.286 36.75C240.562 36.75 257 53.2035 257 73.5Z" fill="black"/>
</svg>
